<svg xmlns="http://www.w3.org/2000/svg" xmlns:xlink="http://www.w3.org/1999/xlink" width="1920" height="518" viewBox="0 0 1920 518">
  <defs>
    <clipPath id="clip-Mansi_1">
      <rect width="1920" height="518"/>
    </clipPath>
  </defs>
  <g id="Mansi_1" data-name="Mansi – 1" clip-path="url(#clip-Mansi_1)">
    <rect width="1920" height="518" fill="#fff"/>
    <path id="Path_127" data-name="Path 127" d="M229.175-73.589a29.623,29.623,0,0,0-9.786-1.75c-3.845-.07-7.7-.03-11.538.271-5.418.427-10.848.933-16.214,1.778q-10,1.575-19.9,3.792c-7.233,1.615-14.425,3.442-21.576,5.39-11.594,3.171-23.018,6.881-34.314,10.99Q97.514-46.44,79.8-38.257C70.261-33.826,60.874-29.1,51.723-23.917A224.766,224.766,0,0,0,21.334-3.808,85.252,85.252,0,0,0,6.076,11.328C3.71,14.5,1.626,17.8.887,21.824A9.644,9.644,0,0,0,5.794,32.286a23.181,23.181,0,0,0,6.97,2.59c5.987,1.279,12.047,1.167,18.076.721,5.511-.406,11.02-1.085,16.485-1.9,7.609-1.134,15.188-2.459,22.762-3.806,5.36-.95,10.68-2.088,16.028-3.117,10.645-2.049,21.282-4.125,31.936-6.1,7.338-1.356,14.684-2.66,22.057-3.8a230.074,230.074,0,0,1,23.772-2.648c6.475-.322,12.945-.6,19.392.357a22.45,22.45,0,0,1,7.789,2.3c2.872,1.6,3.794,3.845,2.961,6.545a14.124,14.124,0,0,1-.523,1.451,22.786,22.786,0,0,1-4.515,6.421c-5.166,5.467-11.214,9.84-17.479,13.925A293,293,0,0,1,135.84,65.058a179.42,179.42,0,0,1-19.574,8.195,74.764,74.764,0,0,1-15,3.7,15.49,15.49,0,0,1-6.153-.2c-1.913-.553-2.529-1.874-2.219-3.869a12.653,12.653,0,0,1,2.1-4.692c.581-.95,1.134-1.918,1.743-2.959.026,0,.236.023.534.058a5.747,5.747,0,0,1,.007-.733,6.607,6.607,0,0,1,.163-.658c1.022.089,1.022.089,1.122-.863.747-.516,1.367-.957,1.995-1.386.971-.663,1.409-1.79,2.373-2.518,1.631-1.227,3.052-2.73,4.585-4.1a162.7,162.7,0,0,1,13.944-11.384c2.018-1.444,4.156-2.735,6.258-4.058a3.137,3.137,0,0,1,2.683-.5c.294.086.856.028.961-.154a1.5,1.5,0,0,0,.072-1.15,2.3,2.3,0,0,0-3.136-1.22,52.757,52.757,0,0,0-4.856,2.84,177.851,177.851,0,0,0-20.823,16.31c-.243.217-.588.457-.63.728-.182,1.139-1.092,1.7-1.785,2.443-2.189,2.347-4.93,4.221-6.228,7.38-.336-.089-.616-.159-.9-.231-.329.425-.639.777-.9,1.164a11.177,11.177,0,0,0-2.254,6.116,4.648,4.648,0,0,0,2.347,4.5,12.818,12.818,0,0,0,3.381,1.314,23.1,23.1,0,0,0,8.661.159,115.864,115.864,0,0,0,16.226-4.531,7.851,7.851,0,0,0,1.587-.975,3.631,3.631,0,0,0,1.055-.063c3.5-1.363,7.051-2.578,10.435-4.163,6.874-3.218,13.708-6.529,20.459-10A221.176,221.176,0,0,0,178.5,45.015a76.056,76.056,0,0,0,13.743-11.6,21.278,21.278,0,0,0,4.744-7.744,8.974,8.974,0,0,0-2.056-9.27,14.839,14.839,0,0,0-5.63-3.873c-4.919-1.955-10.1-2.459-15.311-2.707a101.645,101.645,0,0,0-14.765.429c-4.384.434-8.794.721-13.162,1.325-6.921.957-13.825,2.056-20.718,3.218Q114.8,16.58,104.3,18.618c-8.43,1.638-16.826,3.442-25.247,5.108-7.037,1.393-14.084,2.8-21.156,4.011C50.507,29,43.085,30.179,35.653,31.164a90.412,90.412,0,0,1-19.931.828,23.075,23.075,0,0,1-8.43-2.053,5.262,5.262,0,0,1-3.078-5.661,16.275,16.275,0,0,1,2.114-6.811,43.966,43.966,0,0,1,6.2-8.33A109.484,109.484,0,0,1,25.678-2.746c11.419-8.876,23.837-16.184,36.547-23,6.246-3.346,12.633-6.435,19.033-9.476,4.321-2.056,8.755-3.876,13.174-5.719s8.853-3.652,13.333-5.353c6.141-2.338,12.322-4.573,18.494-6.823,2.865-1.045,5.747-2.021,8.624-3.029a24.97,24.97,0,0,1,3.71-1.269c1.258-.229,2.308-.926,3.589-1.139a55.407,55.407,0,0,0,6.368-1.68c3.325-.961,6.613-2.03,9.947-2.94,2.389-.651,4.83-1.146,7.257-1.673,5.542-1.2,11.072-2.436,16.632-3.558,3.586-.728,7.2-1.328,10.808-1.92a132.777,132.777,0,0,1,23.672-1.937,36.136,36.136,0,0,1,12.815,2.165,4.6,4.6,0,0,1,3.225,5,6.619,6.619,0,0,1-.429,2.2,48.515,48.515,0,0,1-3.106,6.606c-2.63,4.163-5.472,8.195-8.307,12.229-5.591,7.95-11.279,15.822-16.821,23.8-2.084,3-3.946,6.169-5.754,9.347A16.846,16.846,0,0,0,196.957-6.7a2.564,2.564,0,0,0,.992,3.005,4.363,4.363,0,0,0,1.092.345,9.594,9.594,0,0,0,.275-1.15,10.827,10.827,0,0,1,.194-2.06,13.986,13.986,0,0,1,1.246-2.665,156.538,156.538,0,0,1,9.422-14.014c4.674-6.354,9.34-12.7,14.084-19a88.586,88.586,0,0,0,8.582-13.029,23.244,23.244,0,0,0,2.548-7.273c.611-4.468-1.155-9.189-6.216-11.048Zm188.867-1.12a3.848,3.848,0,0,0-2.319-2.672,24.155,24.155,0,0,0-4.027-1.239c-3.5-.621-7.021-1.232-10.561-1.6-4.851-.492-9.716-.821-14.583-1.087-5.154-.28-10.316-.364-15.47-.5-10.516-.271-21.035-.1-31.556-.1-.845,0-1.692.012-2.536.065q-8.421.483-16.844.985c-3.558.217-7.121.371-10.668.693-4.573.418-9.135.975-13.7,1.479-5.031.558-10.057,1.127-15.087,1.668a2.614,2.614,0,0,1-.845-.264,7.907,7.907,0,0,1,.392-1.092c2.69-4.839,5.42-9.658,8.085-14.513a14.031,14.031,0,0,1,2.977-3.43c-.852-.744-1.545-1.349-2.238-1.955H288.5c-.8,1.157-1.678,2.261-2.378,3.477-3.005,5.2-5.945,10.439-8.93,15.657-.5.887-1.062,1.745-1.6,2.632-1.892.257-3.647.5-5.409.733q-5.3.679-10.6,1.339c-3.9.492-7.807,1.01-11.718,1.472-3.815.453-7.649.782-11.459,1.281a107.716,107.716,0,0,1-13.452,1.045,18.246,18.246,0,0,0-2.529.082,8.973,8.973,0,0,0-1.685.581c-.376,1.367.282,1.925.875,2.165,1.449-.222,2.536-.469,3.633-.539,1.685-.1,3.388.007,5.068-.14,2.893-.247,5.775-.63,8.659-.94q7.686-.836,15.37-1.661c1.773-.194,3.54-.406,5.306-.611q6.563-.774,13.123-1.538c.9-.1,1.836-.429,2.842.287a14.316,14.316,0,0,1-.581,1.5c-.74,1.414-1.552,2.788-2.284,4.209-5.924,11.417-11.566,22.979-16.8,34.732q-5.089,11.431-9.774,23.037C241.3-2.326,238.635,4.9,235.963,12.11a195.915,195.915,0,0,0-8.05,27.533,66.451,66.451,0,0,0-1.519,17.332,16.175,16.175,0,0,0,1.808,6.746,7.95,7.95,0,0,0,7,4.457A20.37,20.37,0,0,0,247,65.042a72.159,72.159,0,0,0,12.334-9.317c4.914-4.515,9.235-9.611,13.82-14.448.259-.271.457-.593.7-.88,2.424-2.865,4.849-5.719,7.268-8.591q5.715-6.769,11.408-13.561c2.231-2.658,4.454-5.318,6.638-8.013C301.476,7.4,303.742,4.524,306,1.647a4.092,4.092,0,0,0,.46-1.162c-.9-.891-1.475-.457-1.99.17q-2.52,3.031-5.007,6.083c-4.685,5.735-9.3,11.529-14.063,17.194-3.862,4.592-7.812,9.119-11.893,13.515q-7.563,8.155-15.435,16.023a57.6,57.6,0,0,1-13.739,10.22,27.477,27.477,0,0,1-6.029,2.284c-3.757.957-6.188-.4-7.455-4.093a18.554,18.554,0,0,1-.91-4.671,57.707,57.707,0,0,1,1.538-17.32c1.111-4.748,2.231-9.5,3.54-14.2,1.234-4.426,2.683-8.8,4.116-13.169q1.586-4.809,3.388-9.546c1.262-3.334,2.637-6.622,3.957-9.928.415-1.045.845-2.088,1.255-3.134.957-2.438,1.862-4.9,2.877-7.315,1.6-3.806,3.3-7.569,4.914-11.368,1.064-2.5,2-5.047,3.094-7.537.674-1.538,1.573-2.982,2.308-4.5,2.1-4.3,4.1-8.652,6.246-12.931,2.571-5.122,5.231-10.192,7.9-15.26.87-1.65,1.855-3.234,2.835-4.937,1.762-.21,3.43-.427,5.1-.609,2.427-.266,4.851-.488,7.275-.754,2.7-.287,5.395-.632,8.1-.891,2.893-.271,5.8-.406,8.689-.7,4.662-.488,9.322-.98,14.019-1.073.376-.007.751-.035,1.127-.061,5.243-.315,10.481-.873,15.722-.9,13.893-.065,27.788-.595,41.678.315,4.956.329,9.933.212,14.908.569,5.805.418,11.583.929,17.325,1.85a8.358,8.358,0,0,1,3.6,1.251c.6.852.259,2.289,1.827,2.354A1.668,1.668,0,0,0,418.042-74.709ZM380.76.418a32.18,32.18,0,0,0-4.636,2.637c-5.754,4.051-11.45,8.195-17.18,12.287a62.424,62.424,0,0,1-9.256,5.882,7.184,7.184,0,0,1-3.981,1.1c-1.2-1.325-1.022-2.912-.775-4.333a49.1,49.1,0,0,1,1.843-7.644A195.5,195.5,0,0,1,355.481-9.8a53.788,53.788,0,0,0,2.238-5.465c.621-1.792.268-2.319-1.7-3.117a3.044,3.044,0,0,0-.814-.007c-.763.681-1.7,1.451-2.555,2.3C347.4-10.836,342.218-5.53,336.936-.322c-4.146,4.086-8.384,8.073-12.623,12.066a28.512,28.512,0,0,1-3.323,2.6,12.8,12.8,0,0,1-2.1.957,4,4,0,0,1-.252-3.11A82.9,82.9,0,0,1,322.4-.775c1.085-3.2,2.371-6.321,3.547-9.492a2.357,2.357,0,0,0,.182-1.351,1.735,1.735,0,0,0-.882-.945,1.154,1.154,0,0,0-1,.282,3.67,3.67,0,0,0-.74,1.181c-.81,1.794-1.626,3.591-2.371,5.411a93.942,93.942,0,0,0-5.413,16.574,11.234,11.234,0,0,0-.264,3.066c.21,2.781,2.27,4.256,4.914,3.393a12.528,12.528,0,0,0,3.675-1.995,60.46,60.46,0,0,0,5.271-4.65C335.2,4.9,341.026-.957,346.873-6.792c1.661-1.661,3.311-3.327,5-4.965.268-.264.509-.863,1.19-.383-.45.933-.9,1.855-1.344,2.784-1.9,3.981-3.887,7.926-5.689,11.954a54.947,54.947,0,0,0-4.515,14.758,8.781,8.781,0,0,0,.506,4.415,3.953,3.953,0,0,0,3.838,2.753,12.4,12.4,0,0,0,7.257-1.848c2.56-1.568,5.108-3.166,7.544-4.921,4.949-3.558,9.8-7.257,14.726-10.85,2.564-1.867,5.194-3.64,7.8-5.46-.968-1.325-1.3-1.566-2.424-1.027Zm80.9,1.076a4.008,4.008,0,0,0-3.26-.38c-2.665.558-5.325,1.108-7.982,1.685-4.4.957-8.79,1.955-13.2,2.87a13.449,13.449,0,0,1-3.351.254A3.235,3.235,0,0,1,430.4,2.6a18.521,18.521,0,0,1,.2-3.915c.3-2.226.693-4.445,1.085-6.659a3.854,3.854,0,0,0-1.332-4.044c-1.339-.992-2.812-.716-4.251.023a50.323,50.323,0,0,0-7.784,5.038A222.9,222.9,0,0,0,400.229,8.692c-2.161,2.084-4.426,4.058-6.657,6.064a4.989,4.989,0,0,1-.957.488,9.083,9.083,0,0,1,.205-1.766c.721-2.133,1.437-4.275,2.282-6.358,2.578-6.358,5.661-12.476,8.72-18.618.709-1.421,1.244-2.928,1.836-4.408.061-.154-.023-.364-.058-.735-.476-.21-1.034-.453-1.762-.775-.4.623-.639.917-.8,1.251-1.027,2.207-2.007,4.445-3.052,6.645-2.214,4.662-4.51,9.289-6.68,13.972a44.73,44.73,0,0,0-3.29,9.27,10.506,10.506,0,0,0-.287,1.374,2.455,2.455,0,0,0,3.512,2.595,7.675,7.675,0,0,0,1.913-1.174c1.463-1.174,2.912-2.366,4.3-3.633,2.9-2.66,5.805-5.332,8.631-8.08C412.67.35,417.759-3.5,422.673-7.565a45.746,45.746,0,0,1,4.191-2.847,1.6,1.6,0,0,1,1.846-.124,4.752,4.752,0,0,1,.156,2.989c-.446,2.394-1.027,4.779-1.29,7.191-.488,4.4,1.72,8.125,6.974,8.2a26.8,26.8,0,0,0,7.544-.7c2.8-.775,5.642-1.409,8.472-2.079q4.518-1.075,9.053-2.091c.8-.182,1.626-.287,2.676-.462-.294-.464-.392-.847-.639-1.017Zm80.36,0a4.008,4.008,0,0,0-3.26-.38c-2.665.558-5.325,1.108-7.982,1.685-4.4.957-8.79,1.955-13.2,2.87a13.449,13.449,0,0,1-3.351.254A3.235,3.235,0,0,1,510.759,2.6a18.521,18.521,0,0,1,.2-3.915c.3-2.226.693-4.445,1.085-6.659a3.855,3.855,0,0,0-1.332-4.044c-1.339-.992-2.812-.716-4.251.023a50.323,50.323,0,0,0-7.784,5.038A222.9,222.9,0,0,0,480.589,8.692c-2.161,2.084-4.426,4.058-6.657,6.064a4.989,4.989,0,0,1-.957.488,9.083,9.083,0,0,1,.205-1.766c.721-2.133,1.437-4.275,2.282-6.358,2.578-6.358,5.661-12.476,8.72-18.618.709-1.421,1.244-2.928,1.836-4.408.061-.154-.023-.364-.058-.735-.476-.21-1.034-.453-1.762-.775-.4.623-.639.917-.8,1.251-1.027,2.207-2.007,4.445-3.052,6.645-2.214,4.662-4.51,9.289-6.68,13.972a44.73,44.73,0,0,0-3.29,9.27,10.506,10.506,0,0,0-.287,1.374,2.455,2.455,0,0,0,3.512,2.595,7.675,7.675,0,0,0,1.913-1.174c1.463-1.174,2.912-2.366,4.3-3.633,2.9-2.66,5.805-5.332,8.631-8.08C493.03.35,498.119-3.5,503.033-7.565a45.746,45.746,0,0,1,4.191-2.847,1.6,1.6,0,0,1,1.846-.124,4.752,4.752,0,0,1,.156,2.989c-.446,2.394-1.027,4.779-1.29,7.191-.488,4.4,1.72,8.125,6.974,8.2a26.8,26.8,0,0,0,7.544-.7c2.8-.775,5.642-1.409,8.472-2.079q4.518-1.075,9.053-2.091c.8-.182,1.626-.287,2.676-.462-.294-.464-.392-.847-.639-1.017Zm54.367-.348c-2.172.887-4.361,1.743-6.505,2.7-7.884,3.516-15.738,7.117-23.646,10.579-2.571,1.127-5.266,1.99-7.926,2.919a4.264,4.264,0,0,1-3.663.051,3.333,3.333,0,0,1-.306-2.865c.334-1.367.67-2.742,1.134-4.067a142.228,142.228,0,0,1,9.1-20.272c.217-.406.418-.817.611-1.188-1.08-1.085-1.708-1.244-2.343-.5a10.63,10.63,0,0,0-1.391,2.1c-1.909,3.768-3.871,7.52-5.637,11.354-1.255,2.723-2.312,5.549-3.323,8.372a25.564,25.564,0,0,0-1.122,4.643,3.911,3.911,0,0,0,3.078,4.667,5.316,5.316,0,0,0,3.047.154,59.456,59.456,0,0,0,6.2-1.8c4.244-1.762,8.407-3.729,12.593-5.637,4.349-1.983,8.694-4,13.039-6,2.471-1.139,4.961-2.249,7.42-3.411.642-.306,1.451-.488,1.6-1.5-.534-.728-1.251-.6-1.962-.3Zm-23.858-37.21c.322-.441.523-.987.875-1.4a8.25,8.25,0,0,1,1.251-1c-.922-1.269-1.82-2.044-3.5-1.468A14.53,14.53,0,0,0,570-36.141c1.293,1.015,1.82,1.034,2.525.077ZM677.991,1.493a4.008,4.008,0,0,0-3.26-.38c-2.665.558-5.325,1.108-7.982,1.685-4.4.957-8.79,1.955-13.2,2.87a13.449,13.449,0,0,1-3.351.254A3.235,3.235,0,0,1,646.734,2.6a18.521,18.521,0,0,1,.2-3.915c.3-2.226.693-4.445,1.085-6.659a3.855,3.855,0,0,0-1.332-4.044c-1.339-.992-2.812-.716-4.251.023a50.323,50.323,0,0,0-7.784,5.038A222.909,222.909,0,0,0,616.564,8.692c-2.161,2.084-4.426,4.058-6.657,6.064a4.99,4.99,0,0,1-.957.488,9.083,9.083,0,0,1,.205-1.766c.721-2.133,1.437-4.275,2.282-6.358C614.016.761,617.1-5.357,620.157-11.5c.709-1.421,1.244-2.928,1.836-4.408.061-.154-.023-.364-.058-.735-.476-.21-1.034-.453-1.762-.775-.4.623-.639.917-.8,1.251-1.027,2.207-2.007,4.445-3.052,6.645-2.214,4.662-4.51,9.289-6.68,13.972a44.732,44.732,0,0,0-3.29,9.27,10.516,10.516,0,0,0-.287,1.374,2.455,2.455,0,0,0,3.512,2.595,7.675,7.675,0,0,0,1.913-1.174c1.463-1.174,2.912-2.366,4.3-3.633,2.9-2.66,5.805-5.332,8.631-8.08C629.005.35,634.094-3.5,639.008-7.565a45.75,45.75,0,0,1,4.191-2.847,1.6,1.6,0,0,1,1.846-.124,4.752,4.752,0,0,1,.156,2.989c-.446,2.394-1.027,4.779-1.29,7.191-.488,4.4,1.72,8.125,6.974,8.2a26.8,26.8,0,0,0,7.544-.7c2.8-.775,5.642-1.409,8.472-2.079q4.518-1.075,9.053-2.091c.8-.182,1.626-.287,2.676-.462-.294-.464-.392-.847-.639-1.017Zm67.721.243c-.7.611-1.255,1.4-1.948,2.032-3.593,3.3-7.187,6.592-10.815,9.844-3.978,3.57-7.912,7.2-12.012,10.633-5.964,5-12.052,9.856-18.1,14.758a5.071,5.071,0,0,1-1.174.441c1.162-3.136,2.235-5.917,3.229-8.731q3.353-9.562,6.634-19.15c1.4-4.074,2.746-8.167,4.121-12.252q1.12-3.329,2.261-6.657c.086-.266.187-.53.3-.789.922-2.147,1.862-4.291,2.765-6.445a5.884,5.884,0,0,0,.194-1.251c-.733-.236-1.4-.446-2.1-.67-.457.541-.833.945-1.174,1.386-2.935,3.775-5.831,7.586-8.794,11.335q-5.243,6.622-10.575,13.162a81.928,81.928,0,0,1-8.388,9.1,24.042,24.042,0,0,1-2.672,2.056,3.533,3.533,0,0,1-1.223.294A3.369,3.369,0,0,1,686,17.957a48.17,48.17,0,0,1,1.871-5.588A50.34,50.34,0,0,1,695.219.744a16.636,16.636,0,0,1,4.632-4.069,1.4,1.4,0,0,1,1.9.07c.329.87-.259,1.727-.359,2.632-.093.861-.961,1.743.107,2.6a2.268,2.268,0,0,0,2.312-.527A3.3,3.3,0,0,0,704.7-.259a9.728,9.728,0,0,0,.065-3.054,2.58,2.58,0,0,0-2.52-2.261,5.838,5.838,0,0,0-4.055.777,21.374,21.374,0,0,0-5.355,4.52c-1.878,2.455-3.733,4.944-5.418,7.539a29.583,29.583,0,0,0-4.293,10.045,11.1,11.1,0,0,0-.147,3.621,2.724,2.724,0,0,0,2.919,2.49,5.44,5.44,0,0,0,3.493-.856,36.23,36.23,0,0,0,3.535-2.772,84.884,84.884,0,0,0,9.786-11.237C706.624,3.4,710.4-1.857,714.245-7.058c.24-.322.429-.852,1.127-.565-.128.352-.252.693-.369,1.029-2.172,6.3-4.492,12.551-6.489,18.9C705.42,22.167,702,31.894,698.166,41.487a5.544,5.544,0,0,1-2,2.632c-3.463,2.413-6.909,4.853-10.362,7.285-4.373,3.082-8.783,6.106-13.1,9.27a37.532,37.532,0,0,0-8.836,9.007c-2.912,4.249-4.849,8.853-4.748,14.173a9.515,9.515,0,0,0,4.055,8.206h5.637c.973-.558,1.955-1.108,2.917-1.673,3.078-1.808,5.178-4.592,7.275-7.362a106.394,106.394,0,0,0,10.073-16.252c2.331-4.608,4.527-9.282,6.741-13.942,1.045-2.2,2.018-4.445,2.987-6.683a7.157,7.157,0,0,1,2.219-2.854c1.258-.98,2.513-1.96,3.752-2.97,4.65-3.8,9.305-7.579,13.914-11.419,2.231-1.86,4.31-3.908,6.559-5.752q7.732-6.332,14.889-13.316c2.007-1.967,4.051-3.892,6.041-5.875.574-.569,1.255-1.134,1.251-2.056a1.049,1.049,0,0,0-1.722-.17ZM694.2,50.729a199.286,199.286,0,0,1-13.015,24.892,60.146,60.146,0,0,1-9.529,12.129,10.983,10.983,0,0,1-4.016,2.52,3.082,3.082,0,0,1-4.1-1.416,10,10,0,0,1-1.29-7.308A26.527,26.527,0,0,1,666.645,70.7a40.337,40.337,0,0,1,8.834-8.96c2.984-2.266,6.048-4.422,9.1-6.594,3.206-2.277,6.442-4.52,9.669-6.769a8.46,8.46,0,0,1,.994-.45c-.406,1.1-.67,1.972-1.041,2.8ZM818.678,1.694a15.887,15.887,0,0,0-2.165,1.293C805.88,10.054,795.3,17.206,784.2,23.522a65.461,65.461,0,0,1-13.279,6.1,16.051,16.051,0,0,1-4.438.623,4.575,4.575,0,0,1-4.739-3.257,18.035,18.035,0,0,1-1.216-6.041,55.326,55.326,0,0,1,1.281-11.725,181.075,181.075,0,0,1,8.055-27.536c2.952-7.908,6.158-15.727,9.305-23.564,1.325-3.306,2.66-6.629,4.233-9.823,2.525-5.136,4.867-10.348,7.156-15.587.712-1.626,1.626-3.183,2.2-4.849a40.515,40.515,0,0,1,2.583-6.428,55.788,55.788,0,0,0,2.525-5.637,7.388,7.388,0,0,0,.205-1.941c-.681-.208-1.192-.359-1.843-.553-.94,2.506-1.762,4.7-2.583,6.893a31.158,31.158,0,0,1-1.792,4.685,15.3,15.3,0,0,0-2.114,4.825c-1.878,1.85-2.331,4.457-3.5,6.68-4.592,8.724-8.72,17.677-12.542,26.766A316.5,316.5,0,0,0,762.153-5.122c-1.479,4.937-2.66,9.968-3.815,14.989a44.01,44.01,0,0,0-.775,12.6,15.051,15.051,0,0,0,.751,3.85A8.321,8.321,0,0,0,764.1,32a10.038,10.038,0,0,0,4.445.317A42.828,42.828,0,0,0,782.521,27.3c6.27-3.4,12.287-7.238,18.251-11.153,2.907-1.909,5.843-3.764,8.724-5.689,3.124-2.084,6.211-4.216,9.294-6.365.663-.462,1.479-.863,1.568-1.843a1.168,1.168,0,0,0-1.68-.558Zm75.339-.268a5.826,5.826,0,0,0-3.239.763,85.273,85.273,0,0,0-10.969,6.323,178.055,178.055,0,0,0-27.4,22.414c-1.069,1.057-2.107,2.137-3.183,3.194-.3.294-.658.534-1.374,1.1a13.734,13.734,0,0,1,1.456-3.5c5.1-10.045,10.257-20.06,15.318-30.123,2.613-5.2,5.1-10.46,7.579-15.722.639-1.351,1.08-2.8,1.6-4.2a2.174,2.174,0,0,0-.124-2.149,2.013,2.013,0,0,0-2.184-.84c-.593.562-1.356,1.251-2.079,1.972-5.178,5.178-10.313,10.4-15.54,15.528C850.8-.789,847.625,2.135,844.4,4.993a34.144,34.144,0,0,1-4.368,3.071,3.734,3.734,0,0,1-3.663.476,10.914,10.914,0,0,1-1.356-5.728c.2-1.675.422-3.353.751-5.01.945-4.79,2.037-9.546,4.4-13.9a1.338,1.338,0,0,0-.553-1.944,5.733,5.733,0,0,0-1.3-.469,11.064,11.064,0,0,0-2.389,4.524c-1.1,3.582-2.1,7.205-3.04,10.834a26.16,26.16,0,0,0-.352,8.4,7.636,7.636,0,0,0,.658,2.436,5.281,5.281,0,0,0,7.219,2.9A17.743,17.743,0,0,0,845.829,7.1c3.423-3.206,6.858-6.4,10.2-9.688,4.674-4.585,9.266-9.252,14.091-14.084a12.8,12.8,0,0,1-1.146,2.7c-2.987,5.852-6,11.695-8.988,17.542q-8.207,16.044-16.4,32.1c-1.883,3.675-3.8,7.334-5.789,10.955a52.358,52.358,0,0,1-3,4.755c-3.423,4.933-7.016,9.758-9.858,15.071-.88,1.65-1.7,3.346-2.436,5.066a1.8,1.8,0,0,0,.511,2.3,2.112,2.112,0,0,0,2.394.012,4.1,4.1,0,0,0,1.234-1.12,43.722,43.722,0,0,0,2.865-4.17c2.905-5.136,5.91-10.232,8.535-15.517,3.012-6.057,7.21-11.165,11.788-16.028,5.021-5.329,10.4-10.292,15.794-15.246,1.309-1.2,2.658-2.373,4.067-3.465A152.873,152.873,0,0,1,887.882,6.046c2.266-1.286,4.5-2.742,7.191-3.078.119-.016.205-.275.306-.422-.693-.922-.875-1.062-1.363-1.12Zm301.439-75.014a29.623,29.623,0,0,0-9.786-1.75c-3.845-.07-7.7-.03-11.538.271-5.418.427-10.848.933-16.214,1.778q-10,1.575-19.9,3.792c-7.233,1.615-14.425,3.442-21.576,5.39-11.594,3.171-23.018,6.881-34.314,10.99q-18.337,6.678-36.048,14.861c-9.541,4.431-18.928,9.158-28.079,14.341A224.763,224.763,0,0,0,987.614-3.808a85.252,85.252,0,0,0-15.258,15.136c-2.366,3.176-4.45,6.468-5.189,10.5a9.644,9.644,0,0,0,4.907,10.463,23.181,23.181,0,0,0,6.97,2.59c5.987,1.279,12.047,1.167,18.076.721,5.511-.406,11.02-1.085,16.485-1.9,7.609-1.134,15.188-2.459,22.762-3.806,5.36-.95,10.68-2.088,16.028-3.117,10.645-2.049,21.282-4.125,31.936-6.1,7.338-1.356,14.684-2.66,22.057-3.8a230.076,230.076,0,0,1,23.772-2.648c6.475-.322,12.945-.6,19.392.357a22.45,22.45,0,0,1,7.789,2.3c2.872,1.6,3.794,3.845,2.961,6.545a14.139,14.139,0,0,1-.523,1.451,22.783,22.783,0,0,1-4.515,6.421c-5.166,5.467-11.214,9.84-17.479,13.925a293,293,0,0,1-35.665,19.833,179.422,179.422,0,0,1-19.574,8.195,74.765,74.765,0,0,1-15,3.7,15.49,15.49,0,0,1-6.153-.2c-1.913-.553-2.529-1.874-2.219-3.869a12.654,12.654,0,0,1,2.1-4.692c.581-.95,1.134-1.918,1.743-2.959.026,0,.236.023.534.058a5.761,5.761,0,0,1,.007-.733,6.645,6.645,0,0,1,.163-.658c1.022.089,1.022.089,1.122-.863.747-.516,1.367-.957,1.995-1.386.971-.663,1.409-1.79,2.373-2.518,1.631-1.227,3.052-2.73,4.585-4.1a162.675,162.675,0,0,1,13.944-11.384c2.018-1.444,4.156-2.735,6.258-4.058a3.137,3.137,0,0,1,2.683-.5c.294.086.856.028.961-.154a1.5,1.5,0,0,0,.072-1.15,2.3,2.3,0,0,0-3.136-1.22,52.765,52.765,0,0,0-4.856,2.84,177.86,177.86,0,0,0-20.823,16.31c-.243.217-.588.457-.63.728-.182,1.139-1.092,1.7-1.785,2.443-2.189,2.347-4.93,4.221-6.228,7.38-.336-.089-.616-.159-.9-.231-.329.425-.639.777-.9,1.164a11.178,11.178,0,0,0-2.254,6.116,4.648,4.648,0,0,0,2.347,4.5,12.817,12.817,0,0,0,3.381,1.314,23.1,23.1,0,0,0,8.661.159,115.868,115.868,0,0,0,16.226-4.531,7.852,7.852,0,0,0,1.587-.975,3.631,3.631,0,0,0,1.055-.063c3.5-1.363,7.051-2.578,10.435-4.163,6.874-3.218,13.708-6.529,20.459-10a221.182,221.182,0,0,0,24.43-14.548,76.06,76.06,0,0,0,13.743-11.6,21.277,21.277,0,0,0,4.744-7.744,8.974,8.974,0,0,0-2.056-9.27,14.839,14.839,0,0,0-5.63-3.873c-4.919-1.955-10.1-2.459-15.311-2.707a101.646,101.646,0,0,0-14.765.429c-4.384.434-8.794.721-13.162,1.325-6.921.957-13.825,2.056-20.718,3.218q-10.549,1.789-21.047,3.827c-8.43,1.638-16.826,3.442-25.247,5.108-7.037,1.393-14.084,2.8-21.156,4.011-7.392,1.267-14.814,2.443-22.246,3.428A90.413,90.413,0,0,1,982,31.992a23.075,23.075,0,0,1-8.43-2.053,5.261,5.261,0,0,1-3.078-5.661,16.275,16.275,0,0,1,2.114-6.811,43.966,43.966,0,0,1,6.2-8.33A109.48,109.48,0,0,1,991.958-2.746c11.419-8.876,23.837-16.184,36.547-23,6.246-3.346,12.633-6.435,19.033-9.476,4.321-2.056,8.755-3.876,13.174-5.719s8.853-3.652,13.333-5.353c6.141-2.338,12.322-4.573,18.494-6.823,2.865-1.045,5.747-2.021,8.624-3.029a24.972,24.972,0,0,1,3.71-1.269c1.258-.229,2.308-.926,3.589-1.139a55.413,55.413,0,0,0,6.368-1.68c3.325-.961,6.613-2.03,9.947-2.94,2.389-.651,4.83-1.146,7.257-1.673,5.542-1.2,11.072-2.436,16.632-3.558,3.586-.728,7.2-1.328,10.808-1.92a132.779,132.779,0,0,1,23.672-1.937,36.136,36.136,0,0,1,12.815,2.165,4.6,4.6,0,0,1,3.225,5,6.619,6.619,0,0,1-.429,2.2,48.522,48.522,0,0,1-3.106,6.606c-2.63,4.163-5.472,8.195-8.307,12.229-5.591,7.95-11.279,15.822-16.821,23.8-2.084,3-3.946,6.169-5.754,9.347a16.846,16.846,0,0,0-1.531,4.209,2.565,2.565,0,0,0,.992,3.005,4.363,4.363,0,0,0,1.092.345,9.6,9.6,0,0,0,.275-1.15,10.829,10.829,0,0,1,.194-2.06,13.989,13.989,0,0,1,1.246-2.665,156.538,156.538,0,0,1,9.422-14.014c4.674-6.354,9.34-12.7,14.084-19a88.575,88.575,0,0,0,8.582-13.029,23.243,23.243,0,0,0,2.548-7.273c.611-4.468-1.155-9.189-6.216-11.048ZM1284.743.093a30.981,30.981,0,0,1-6.846,3.264c-9.875,3.862-19.819,7.532-30.03,10.449-9.294,2.655-18.6,5.255-28.009,7.45-1.314.306-2.648.523-4.174.824.229-.313.271-.418.341-.46,6.981-4.226,12.735-9.863,18.118-15.9a30.922,30.922,0,0,0,5.642-8.372,20.45,20.45,0,0,0,1.132-3.171,3.216,3.216,0,0,0-2.1-3.822,3.6,3.6,0,0,0-3.729.534,58.426,58.426,0,0,0-6.13,4.926c-2.819,2.749-5.514,5.637-8.073,8.631a161,161,0,0,0-12.791,16.772c-1.521,2.343-3.547,2.76-6.123,2.385a9.1,9.1,0,0,1,.95-3.589c2.765-7.18,5.6-14.329,8.349-21.516,1.778-4.643,3.465-9.324,5.143-14a24.569,24.569,0,0,0,.833-3.269,1.586,1.586,0,0,0-.915-1.869,7.006,7.006,0,0,0-1.216-.392,4.144,4.144,0,0,0-2.149,2.63c-.481,1.127.581,1.9.735,2.989-1.022,2.77-2.025,5.6-3.113,8.4-3.726,9.623-7.5,19.234-11.207,28.861-.429,1.108-.716,1.843-1.9,2.261a1.08,1.08,0,0,0-.558.838,5.65,5.65,0,0,0,.609,1.855c-.915,2.462-1.843,4.914-2.735,7.38s-1.731,4.961-2.606,7.439-1.755,4.949-2.637,7.427c-.91,2.564-1.825,5.124-2.718,7.7-.863,2.483-1.685,4.977-2.541,7.46s-1.808,4.94-2.59,7.446c-.77,2.471-2.137,4.767-2.4,7.362,1.673.852,2.273.758,2.877-.406a10.1,10.1,0,0,0,.511-1.309c.91-2.564,1.678-5.189,2.746-7.684q3.654-8.533,7.569-16.961c1.468-3.141,3.11-6.211,4.842-9.217,3.129-5.448,6.382-10.834,9.576-16.24a3.908,3.908,0,0,1,3.187-2.018,119.035,119.035,0,0,0,16.546-3.271c11.041-2.66,21.88-6.053,32.664-9.592q11.1-3.647,21.87-8.209c1.209-.511,2.382-1.108,3.533-1.736a2.146,2.146,0,0,0,1.409-2.091,1.313,1.313,0,0,0-1.89-.182Zm-88.851,40.672c-.086-.028-.175-.051-.268-.075a12.021,12.021,0,0,1,.317-1.409c1.232-3.435,2.483-6.865,3.726-10.292.982-2.7,1.262-2.865,4.662-2.424-2.912,4.907-5.677,9.557-8.437,14.2Zm16.956-20.629a104.581,104.581,0,0,1,8.624-11.972A128.224,128.224,0,0,1,1231.958-3.2,42.524,42.524,0,0,1,1235.9-6.37a11.893,11.893,0,0,1,2.072-.975,10.324,10.324,0,0,1-1.743,5.2,45.928,45.928,0,0,1-5.6,7.392,93.632,93.632,0,0,1-11.039,10.425c-1.778,1.374-3.68,2.59-5.542,3.859a9.268,9.268,0,0,1-1.2.6ZM1347.875,2.4a3.668,3.668,0,0,0-1.556.534c-.975.558-1.878,1.239-2.858,1.8-5.467,3.113-10.9,6.27-16.422,9.27a83.724,83.724,0,0,1-16.021,6.869,22.871,22.871,0,0,1-7.761,1.092,4.569,4.569,0,0,1-4.27-3.117,7.984,7.984,0,0,1-.574-4.415,28.817,28.817,0,0,1,7.443-14.859,38.269,38.269,0,0,0-1.321,3.95,4.359,4.359,0,0,0,4.608,5.549,9.313,9.313,0,0,0,2.977-.7c2.625-1.015,4.492-3.036,6.312-5.066a20.86,20.86,0,0,0,5.042-9.917,3.929,3.929,0,0,0-1.568-4.233,6.463,6.463,0,0,0-5.836-1.227,18.553,18.553,0,0,0-4.636,1.974,32.382,32.382,0,0,0-8.813,8.195,42.021,42.021,0,0,0-6.669,12.322,14.758,14.758,0,0,0-.6,6.125,7.673,7.673,0,0,0,3.876,6.2,13.21,13.21,0,0,0,8.988,1.337,51.122,51.122,0,0,0,15.58-5.553c4.914-2.536,9.688-5.355,14.478-8.132,2.835-1.65,5.588-3.446,8.36-5.2a5.3,5.3,0,0,0,2.354-2.189c-.406-.231-.77-.623-1.115-.607Zm-40.164.793a14.77,14.77,0,0,1,5.061-7.551,1.964,1.964,0,0,0,.387-.387c.054-.063.047-.17.07-.28-.121-1.188-1.367-.994-2.231-1.563a20.321,20.321,0,0,1,7.133-4.321c2.532,1.064,3.047,1.92,2.49,4.282a12.438,12.438,0,0,1-1.069,2.882,26.744,26.744,0,0,1-6.722,8.524,12.4,12.4,0,0,1-3.4,1.874c-1.176.453-2.039-.271-2.025-1.538A6.085,6.085,0,0,1,1307.712,3.194Zm99.472-2.133a16.385,16.385,0,0,0-3.253.81c-1.92.747-3.794,1.619-5.677,2.459-5.567,2.49-11.1,5.061-16.7,7.457-3.964,1.689-8.008,3.211-12.066,4.66a32.355,32.355,0,0,1-5.46,1.281c-1.948.334-3.206-.534-3.869-2.424a6.357,6.357,0,0,1-.217-3.876,34.718,34.718,0,0,1,3.129-7.814,72.031,72.031,0,0,1,8.407-11.594,25.546,25.546,0,0,1,6.281-5.154,1.278,1.278,0,0,1,1.92.306c-.322,1.015-.616,2.189-1.073,3.3-.611,1.472-1.37,2.882-2.025,4.333-.418.922-1.029,1.813-.735,2.924.74.938,1.622.74,2.653.341.8-1.687,1.58-3.183,2.233-4.739a40.832,40.832,0,0,0,1.836-5.014,3.1,3.1,0,0,0-3-4.1,6.188,6.188,0,0,0-2.735.411,20.793,20.793,0,0,0-3.663,2.06,34.1,34.1,0,0,0-6.788,6.694,55.55,55.55,0,0,0-7.768,12.012,19.868,19.868,0,0,0-1.953,8.412,5.942,5.942,0,0,0,5.987,6.088,26.023,26.023,0,0,0,7.756-1.15,119.13,119.13,0,0,0,14.905-5.894c5.019-2.331,10.029-4.685,15.048-7,2.212-1.02,4.457-1.979,6.669-3.005.546-.252,1.321-.352,1.328-1.444-.364-.112-.8-.4-1.174-.334Zm54.784.084c-2.172.887-4.361,1.743-6.505,2.7-7.884,3.516-15.738,7.117-23.646,10.579-2.571,1.127-5.266,1.99-7.926,2.919a4.264,4.264,0,0,1-3.663.051,3.332,3.332,0,0,1-.306-2.865c.334-1.367.67-2.742,1.134-4.067a142.221,142.221,0,0,1,9.1-20.272c.217-.406.418-.817.611-1.188-1.08-1.085-1.708-1.244-2.343-.5a10.63,10.63,0,0,0-1.391,2.1c-1.909,3.768-3.871,7.52-5.637,11.354-1.255,2.723-2.312,5.549-3.323,8.372a25.57,25.57,0,0,0-1.122,4.643,3.911,3.911,0,0,0,3.078,4.667,5.316,5.316,0,0,0,3.047.154,59.459,59.459,0,0,0,6.2-1.8c4.244-1.762,8.407-3.729,12.593-5.637,4.349-1.983,8.694-4,13.039-6,2.471-1.139,4.961-2.249,7.42-3.411.642-.306,1.451-.488,1.6-1.5-.534-.728-1.251-.6-1.962-.3Zm-23.858-37.21c.322-.441.523-.987.875-1.4a8.254,8.254,0,0,1,1.251-1c-.922-1.269-1.82-2.044-3.5-1.468a14.527,14.527,0,0,0-1.15,3.792c1.293,1.015,1.82,1.034,2.525.077ZM1533.261,2.3a10.011,10.011,0,0,0-1.363.994c-5.3,4.027-10.575,8.09-15.916,12.07a56.483,56.483,0,0,1-10.311,6.293,11.1,11.1,0,0,1-4.284,1.262,2.132,2.132,0,0,1-2.466-1.808,7.908,7.908,0,0,1,.028-3.9,54.829,54.829,0,0,1,4.65-12.644c1.974-3.834,4.158-7.558,6.2-11.354a15.774,15.774,0,0,0,2.114-4.72,5.38,5.38,0,0,0-1.619-.987,3,3,0,0,0-1.843.369,11.288,11.288,0,0,0-1.967,1.575c-2.571,2.331-5.119,4.685-7.686,7.021a11.739,11.739,0,0,1-1.108.77c-.037-1.463-.054-2.648-.1-3.829a4.658,4.658,0,0,0-1.883-3.915c-1.673-1.169-3.542-1.85-5.56-1a18.986,18.986,0,0,0-3.946,2.088,37.4,37.4,0,0,0-6.657,6.823A42.321,42.321,0,0,0,1473.1,8.9c-.586,2.13-.957,4.244-.31,5.572,1.255,2.513,4,2.2,6.34,1.108a20.4,20.4,0,0,0,3.922-2.2c3.187-2.459,6.323-5,9.359-7.644,1.232-1.073,2.394-2.06,4.373-2.065-.112-1.785,1.05-2.76,2.184-3.759,1.4-1.239,2.807-2.487,4.209-3.722.469-.415.957-.81,1.44-1.216a1.355,1.355,0,0,1-.154,1.122c-1.615,3.176-3.288,6.328-4.825,9.541A43.228,43.228,0,0,0,1496,16.553a15.369,15.369,0,0,0-.2,3.911,5.152,5.152,0,0,0,4.755,4.755,11.074,11.074,0,0,0,4.174-.4,32.254,32.254,0,0,0,9.275-4.627c6.218-4.2,11.961-9.035,17.808-13.72,1.1-.882,2.2-1.755,3.246-2.69a3.729,3.729,0,0,0,.623-1.078,1.786,1.786,0,0,0-2.424-.4Zm-38.9-4.83c-.523,3.234-.539,3.288-3.029,5.388q-4.833,4.078-9.856,7.95a15.1,15.1,0,0,1-5.425,2.912,2.952,2.952,0,0,1-.177-2.765,31.049,31.049,0,0,1,3.493-7.973,35.771,35.771,0,0,1,6.788-8.93,35.361,35.361,0,0,1,3.516-2.793,6,6,0,0,1,2.324-.9c1.68-.282,2.555.369,2.613,2.065a25.311,25.311,0,0,1-.247,5.045Zm111.988,4.221a15.886,15.886,0,0,0-2.165,1.293c-10.633,7.068-21.212,14.219-32.314,20.536a65.465,65.465,0,0,1-13.279,6.1,16.051,16.051,0,0,1-4.438.623,4.575,4.575,0,0,1-4.739-3.257,18.038,18.038,0,0,1-1.216-6.041,55.33,55.33,0,0,1,1.281-11.725,181.068,181.068,0,0,1,8.055-27.536c2.952-7.908,6.158-15.727,9.305-23.564,1.325-3.306,2.66-6.629,4.233-9.823,2.525-5.136,4.867-10.348,7.156-15.587.712-1.626,1.626-3.183,2.2-4.849a40.521,40.521,0,0,1,2.583-6.428,55.747,55.747,0,0,0,2.525-5.637,7.393,7.393,0,0,0,.205-1.941c-.681-.208-1.192-.359-1.843-.553-.94,2.506-1.762,4.7-2.583,6.893a31.165,31.165,0,0,1-1.792,4.685,15.3,15.3,0,0,0-2.114,4.825c-1.878,1.85-2.331,4.457-3.5,6.68-4.592,8.724-8.72,17.677-12.542,26.766a316.465,316.465,0,0,0-11.548,31.726c-1.479,4.937-2.66,9.968-3.815,14.989a44.008,44.008,0,0,0-.775,12.6,15.041,15.041,0,0,0,.751,3.85A8.321,8.321,0,0,0,1551.772,32a10.037,10.037,0,0,0,4.445.317A42.828,42.828,0,0,0,1570.2,27.3c6.27-3.4,12.287-7.238,18.251-11.153,2.907-1.909,5.843-3.764,8.724-5.689,3.124-2.084,6.211-4.216,9.294-6.365.663-.462,1.479-.863,1.568-1.843a1.168,1.168,0,0,0-1.68-.558Z" transform="translate(157.5 247.5)" stroke="#000" stroke-linecap="round" stroke-width="3" opacity="0.08"/>
    <g id="Group_161" data-name="Group 161" transform="translate(-1562 6)">
      <rect id="Rectangle_11" data-name="Rectangle 11" width="13" height="44" transform="translate(1638 33)" fill="#006dff"/>
      <rect id="Rectangle_12" data-name="Rectangle 12" width="13.08" height="43.6" transform="translate(1666.1 48.26) rotate(90)" fill="#006dff"/>
    </g>
    <g id="Group_164" data-name="Group 164" transform="translate(218 287.029)">
      <rect id="Rectangle_11-2" data-name="Rectangle 11" width="29" height="97" rx="6" transform="translate(1656 33)" fill="#707070"/>
      <rect id="Rectangle_12-2" data-name="Rectangle 12" width="28.712" height="95.707" rx="6" transform="translate(1718.207 66.497) rotate(90)" fill="#707070"/>
    </g>
    <g id="Union_1" data-name="Union 1" transform="translate(-2616.95 -81.971)" fill="none">
      <path d="M4080.5,152a6,6,0,0,1-6-6V117.209H4047a6,6,0,0,1-6-6V94.5a6,6,0,0,1,6-6h27.5V61a6,6,0,0,1,6-6h17a6,6,0,0,1,6,6V88.5h27.207a6,6,0,0,1,6,6V111.21a6,6,0,0,1-6,6H4103.5V146a6,6,0,0,1-6,6Z" stroke="none"/>
      <path d="M 4097.50048828125 148.0005187988281 C 4098.60302734375 148.0005187988281 4099.5 147.10302734375 4099.5 145.9998626708984 L 4099.5 113.2091217041016 L 4130.70654296875 113.2091217041016 C 4131.8095703125 113.2091217041016 4132.70703125 112.3121109008789 4132.70703125 111.2095108032227 L 4132.70703125 94.49694061279297 C 4132.70703125 93.39434051513672 4131.8095703125 92.49730682373047 4130.70654296875 92.49730682373047 L 4099.5 92.49730682373047 L 4099.5 61.00015640258789 C 4099.5 59.89699172973633 4098.60302734375 58.99949264526367 4097.50048828125 58.99949264526367 L 4080.500244140625 58.99949264526367 C 4079.39697265625 58.99949264526367 4078.49951171875 59.89699172973633 4078.49951171875 61.00015640258789 L 4078.49951171875 92.49730682373047 L 4047.00048828125 92.49730682373047 C 4045.897705078125 92.49730682373047 4045.000732421875 93.39434051513672 4045.000732421875 94.49694061279297 L 4045.000732421875 111.2095108032227 C 4045.000732421875 112.3121109008789 4045.897705078125 113.2091217041016 4047.00048828125 113.2091217041016 L 4078.49951171875 113.2091217041016 L 4078.49951171875 145.9998626708984 C 4078.49951171875 147.10302734375 4079.39697265625 148.0005187988281 4080.500244140625 148.0005187988281 L 4097.50048828125 148.0005187988281 M 4097.50048828125 152.0005187988281 L 4080.500244140625 152.0005187988281 C 4077.1865234375 152.0005187988281 4074.49951171875 149.313720703125 4074.49951171875 145.9998626708984 L 4074.49951171875 117.2091217041016 L 4047.00048828125 117.2091217041016 C 4043.6865234375 117.2091217041016 4041.000732421875 114.5233764648438 4041.000732421875 111.2095108032227 L 4041.000732421875 94.49694061279297 C 4041.000732421875 91.18410491943359 4043.6865234375 88.49730682373047 4047.00048828125 88.49730682373047 L 4074.49951171875 88.49730682373047 L 4074.49951171875 61.00015640258789 C 4074.49951171875 57.68630599975586 4077.1865234375 54.99949264526367 4080.500244140625 54.99949264526367 L 4097.50048828125 54.99949264526367 C 4100.8134765625 54.99949264526367 4103.5 57.68630599975586 4103.5 61.00015640258789 L 4103.5 88.49730682373047 L 4130.70654296875 88.49730682373047 C 4134.0205078125 88.49730682373047 4136.70703125 91.18410491943359 4136.70703125 94.49694061279297 L 4136.70703125 111.2095108032227 C 4136.70703125 114.5233764648438 4134.0205078125 117.2091217041016 4130.70654296875 117.2091217041016 L 4103.5 117.2091217041016 L 4103.5 145.9998626708984 C 4103.5 149.313720703125 4100.8134765625 152.0005187988281 4097.50048828125 152.0005187988281 Z" stroke="none" fill="#006dff"/>
    </g>
    <g id="Group_163" data-name="Group 163" transform="translate(300.179 -835.868) rotate(45)">
      <rect id="Rectangle_11-3" data-name="Rectangle 11" width="6.888" height="23.312" transform="translate(1630.712 33)" fill="#006dff"/>
      <rect id="Rectangle_12-3" data-name="Rectangle 12" width="6.93" height="23.1" transform="translate(1645.6 41.085) rotate(90)" fill="#006dff"/>
    </g>
    <g id="Union_2" data-name="Union 2" transform="translate(-4063.61 291.062)" fill="none">
      <path d="M4058.936,148.408l-13.694-13.692a6,6,0,0,1,0-8.485l22.474-22.473-22.2-22.2a6,6,0,0,1,0-8.485l13.828-13.829a6,6,0,0,1,8.485,0l22.2,22.2,21.791-21.79a6,6,0,0,1,8.485,0L4134,73.345a6,6,0,0,1,0,8.485l-21.791,21.79,21.518,21.518a6,6,0,0,1,0,8.485L4119.9,147.453a6,6,0,0,1-8.485,0l-21.518-21.518-22.473,22.473a6,6,0,0,1-8.484,0Z" stroke="none"/>
      <path d="M 4063.177490234375 146.1649780273438 C 4063.48681640625 146.1649780273438 4064.081787109375 146.0888977050781 4064.59130859375 145.5793151855469 L 4089.89306640625 120.2779235839844 L 4114.2392578125 144.6243743896484 C 4114.74853515625 145.1338500976562 4115.34375 145.2099304199219 4115.6533203125 145.2099304199219 C 4115.962890625 145.2099304199219 4116.55810546875 145.1338500976562 4117.0673828125 144.6243133544922 L 4130.89697265625 130.7947387695312 C 4131.40625 130.2852172851562 4131.482421875 129.6900939941406 4131.482421875 129.3806915283203 C 4131.482421875 129.0713043212891 4131.40625 128.4761657714844 4130.896484375 127.9664611816406 L 4106.55078125 103.6204071044922 L 4131.16943359375 79.00247955322266 C 4131.94921875 78.22209930419922 4131.94970703125 76.952880859375 4131.169921875 76.17329406738281 L 4117.47802734375 62.4810791015625 C 4116.96728515625 61.97072601318359 4116.3720703125 61.89452743530273 4116.06298828125 61.89452743530273 C 4115.75390625 61.89452743530273 4115.1591796875 61.97061920166016 4114.6494140625 62.48098754882812 L 4090.030029296875 87.09963226318359 L 4065.00146484375 62.07094192504883 C 4064.491943359375 61.56135559082031 4063.896728515625 61.48526382446289 4063.587158203125 61.48526382446289 C 4063.27783203125 61.48526382446289 4062.682373046875 61.56135559082031 4062.173095703125 62.07080459594727 L 4048.343994140625 75.90090942382812 C 4047.834228515625 76.41036987304688 4047.758056640625 77.0052490234375 4047.758056640625 77.31451416015625 C 4047.758056640625 77.62375640869141 4047.834228515625 78.21863555908203 4048.344482421875 78.728759765625 L 4073.37255859375 103.7570037841797 L 4048.070556640625 129.0584411621094 C 4047.290771484375 129.8383026123047 4047.290771484375 131.1072235107422 4048.0703125 131.8868560791016 L 4061.76416015625 145.5794372558594 C 4062.2734375 146.0888977050781 4062.868408203125 146.1649780273438 4063.177490234375 146.1649780273438 M 4063.177490234375 150.1649780273438 C 4061.642333984375 150.1649780273438 4060.10693359375 149.5792388916016 4058.935546875 148.4077606201172 L 4045.241943359375 134.7154083251953 C 4042.899169921875 132.3724517822266 4042.899169921875 128.5730590820312 4045.241943359375 126.230110168457 L 4067.715576171875 103.7569580078125 L 4045.51611328125 81.55715942382812 C 4043.172119140625 79.21420288085938 4043.172119140625 75.41480255126953 4045.51611328125 73.07184600830078 L 4059.344482421875 59.24248123168945 C 4061.687744140625 56.8995246887207 4065.487060546875 56.8995246887207 4067.829833984375 59.24248123168945 L 4090.030029296875 81.44280242919922 L 4111.82080078125 59.65252685546875 C 4114.16357421875 57.30852508544922 4117.96142578125 57.30852508544922 4120.30615234375 59.65252685546875 L 4133.99853515625 73.34486389160156 C 4136.34130859375 75.68782043457031 4136.34130859375 79.48617553710938 4133.99853515625 81.83016967773438 L 4112.20751953125 103.6204528808594 L 4133.72509765625 125.1380310058594 C 4136.068359375 127.4810028076172 4136.068359375 131.2804107666016 4133.72509765625 133.6233520507812 L 4119.89599609375 147.4527130126953 C 4117.55322265625 149.7956695556641 4113.75341796875 149.7956695556641 4111.41064453125 147.4527130126953 L 4089.89306640625 125.9347763061523 L 4067.419677734375 148.4077606201172 C 4066.248291015625 149.5792388916016 4064.712890625 150.1649780273438 4063.177490234375 150.1649780273438 Z" stroke="none" fill="#707070"/>
    </g>
    <path id="Path_130" data-name="Path 130" d="M6,0A6,6,0,1,1,0,6,6,6,0,0,1,6,0Z" transform="translate(671 438)" fill="#e0e0e0"/>
    <circle id="Ellipse_11" data-name="Ellipse 11" cx="6" cy="6" r="6" transform="translate(1237 438)" fill="#e0e0e0"/>
    <path id="Path_149" data-name="Path 149" d="M54.76-51.8V0H46.25V-36.926L30.488-10.878l-1.033,0L13.69-37V0H5.18V-51.8h9.176L29.982-25.906,45.65-51.8ZM93.906-37H101.9V0H93.906V-5.328Q89.392.962,80.956.962A17.352,17.352,0,0,1,67.932-4.7a19.247,19.247,0,0,1-5.4-13.8,19.212,19.212,0,0,1,5.4-13.838,17.406,17.406,0,0,1,13.024-5.624q8.436,0,12.95,6.216ZM73.852-10.027A11.275,11.275,0,0,0,82.214-6.66a11.275,11.275,0,0,0,8.362-3.367,11.556,11.556,0,0,0,3.33-8.473,11.556,11.556,0,0,0-3.33-8.473,11.275,11.275,0,0,0-8.362-3.367,11.275,11.275,0,0,0-8.362,3.367,11.556,11.556,0,0,0-3.33,8.473A11.556,11.556,0,0,0,73.852-10.027Zm56.832-27.935a13.636,13.636,0,0,1,10.286,4.07q3.922,4.07,3.922,11.174V0H136.9V-21.9a8.612,8.612,0,0,0-2.22-6.364,8.2,8.2,0,0,0-6.068-2.22,9.134,9.134,0,0,0-6.808,2.627q-2.59,2.627-2.59,8.029V0h-7.992V-37h7.992v4.736Q122.84-37.962,130.684-37.962Zm29.97,11.124a3.21,3.21,0,0,0,2.051,2.886,30.124,30.124,0,0,0,4.921,1.944l5.883,1.812a10.187,10.187,0,0,1,5.032,3.436,9.764,9.764,0,0,1,2.019,6.326,9.823,9.823,0,0,1-4.107,8.362A16.9,16.9,0,0,1,166.13.962a18.3,18.3,0,0,1-9.4-2.294,13.455,13.455,0,0,1-5.7-6.364l6.882-4q1.924,5.328,8.214,5.328t6.29-4.145a3.282,3.282,0,0,0-2.035-2.886,26.76,26.76,0,0,0-4.905-2L159.6-17.2a10.545,10.545,0,0,1-5.048-3.332,9.124,9.124,0,0,1-2.035-6.105,10,10,0,0,1,3.885-8.214,14.968,14.968,0,0,1,9.657-3.108,16.285,16.285,0,0,1,8.177,2.035,13.845,13.845,0,0,1,5.513,5.661l-6.734,3.774q-1.924-4.218-6.956-4.218a7.045,7.045,0,0,0-3.848.986A3.207,3.207,0,0,0,160.654-26.838Zm34.077-17.229a4.906,4.906,0,0,1-3.589,1.517,4.906,4.906,0,0,1-3.589-1.517,4.906,4.906,0,0,1-1.517-3.589,4.967,4.967,0,0,1,1.48-3.589,4.87,4.87,0,0,1,3.626-1.517,4.87,4.87,0,0,1,3.626,1.517,4.967,4.967,0,0,1,1.48,3.589A4.906,4.906,0,0,1,194.731-44.067ZM187.146,0V-37h7.992V0Zm65.786,0L241.988-18.87H231.916V0h-8.51V-51.8h20.72a16.063,16.063,0,0,1,11.8,4.847,16.063,16.063,0,0,1,4.847,11.8,15.556,15.556,0,0,1-2.849,9.065,16.292,16.292,0,0,1-7.437,5.957L262.256,0ZM231.916-43.808v17.316h12.21a7.627,7.627,0,0,0,5.772-2.516,8.63,8.63,0,0,0,2.368-6.142,8.63,8.63,0,0,0-2.368-6.142,7.627,7.627,0,0,0-5.772-2.516ZM295.63-37h7.992V0H295.63V-5.328Q291.116.962,282.68.962A17.352,17.352,0,0,1,269.656-4.7a19.247,19.247,0,0,1-5.4-13.8,19.212,19.212,0,0,1,5.4-13.838,17.406,17.406,0,0,1,13.024-5.624q8.436,0,12.95,6.216ZM275.576-10.027a11.275,11.275,0,0,0,8.362,3.367,11.275,11.275,0,0,0,8.362-3.367,11.556,11.556,0,0,0,3.33-8.473,11.556,11.556,0,0,0-3.33-8.473,11.275,11.275,0,0,0-8.362-3.367,11.275,11.275,0,0,0-8.362,3.367,11.556,11.556,0,0,0-3.33,8.473A11.556,11.556,0,0,0,275.576-10.027Zm56.832-27.935a13.636,13.636,0,0,1,10.286,4.07q3.922,4.07,3.922,11.174V0h-7.992V-21.9a8.612,8.612,0,0,0-2.22-6.364,8.2,8.2,0,0,0-6.068-2.22,9.134,9.134,0,0,0-6.808,2.627q-2.59,2.627-2.59,8.029V0h-7.992V-37h7.992v4.736Q324.564-37.962,332.408-37.962ZM387.908,0h-9.546l-15.17-17.078V0H355.2V-51.8h7.992v31.23L377.548-37h9.768L371.035-18.871Z" transform="translate(766 264)" stroke="#000" stroke-linecap="round" stroke-width="2"/>
    <path id="Path_150" data-name="Path 150" d="M14.847.637a15.047,15.047,0,0,1-8.4-2.254A11.848,11.848,0,0,1,1.617-7.791l4.851-2.842q2.058,5.782,8.526,5.782A7.672,7.672,0,0,0,19.772-6.1a3.934,3.934,0,0,0,1.592-3.25,3.569,3.569,0,0,0-1.717-3.2,26.716,26.716,0,0,0-6.084-2.419L9.627-16.43a15.244,15.244,0,0,1-3.233-1.725,7.3,7.3,0,0,1-2.523-2.867,9.1,9.1,0,0,1-.833-4.018,8.882,8.882,0,0,1,3.234-7.228,11.84,11.84,0,0,1,7.791-2.671,12.908,12.908,0,0,1,7.2,2.009,13.132,13.132,0,0,1,4.753,5.537l-4.753,2.744a7.391,7.391,0,0,0-7.2-4.8,6.184,6.184,0,0,0-3.92,1.151,3.745,3.745,0,0,0-1.47,3.112,3.441,3.441,0,0,0,1.5,2.951,20.274,20.274,0,0,0,5.446,2.28l2.816,1.061L21-17.928A8.728,8.728,0,0,1,23.5-16.6a18.8,18.8,0,0,1,1.774,1.737,5.976,5.976,0,0,1,1.336,2.382A10.859,10.859,0,0,1,27-9.457a8.989,8.989,0,0,1-3.357,7.374A13.539,13.539,0,0,1,14.847.637ZM44.443-19.4H38.367v11.76a2.932,2.932,0,0,0,.686,2.181,3.076,3.076,0,0,0,2.034.735,33.492,33.492,0,0,0,3.356-.025V0q-6.076.735-8.722-1.054t-2.646-6.59V-19.4H28.567v-5.1h4.508v-5.292l5.292-1.568v6.86h6.076ZM66-24.5h5.292V0H66V-3.136Q63.6.637,58.408.637a9.029,9.029,0,0,1-6.811-2.7,10.217,10.217,0,0,1-2.6-7.4V-24.5h5.292V-10a5.7,5.7,0,0,0,1.47,4.214,5.429,5.429,0,0,0,4.018,1.47,6.048,6.048,0,0,0,4.508-1.74Q66-7.791,66-11.368Zm30.87-9.8h5.292V0H96.873V-3.528A9.913,9.913,0,0,1,88.3.637a11.49,11.49,0,0,1-8.624-3.749A12.745,12.745,0,0,1,76.1-12.25a12.722,12.722,0,0,1,3.577-9.163A11.525,11.525,0,0,1,88.3-25.137a9.954,9.954,0,0,1,8.575,4.116ZM83.594-6.64a7.466,7.466,0,0,0,5.537,2.23,7.466,7.466,0,0,0,5.537-2.23,7.652,7.652,0,0,0,2.2-5.61,7.652,7.652,0,0,0-2.2-5.611,7.466,7.466,0,0,0-5.537-2.23,7.466,7.466,0,0,0-5.537,2.23,7.652,7.652,0,0,0-2.2,5.611A7.652,7.652,0,0,0,83.594-6.64ZM112.5-10A6.728,6.728,0,0,0,115.2-5.709a8.664,8.664,0,0,0,5.145,1.495,7.182,7.182,0,0,0,6.321-3.038L131.026-4.7Q127.4.637,120.295.637a13.1,13.1,0,0,1-9.653-3.65,12.474,12.474,0,0,1-3.675-9.237,12.606,12.606,0,0,1,3.626-9.188,12.47,12.47,0,0,1,9.31-3.7,11.456,11.456,0,0,1,8.844,3.773A13.081,13.081,0,0,1,132.2-12.2a16.37,16.37,0,0,1-.2,2.2Zm-.049-4.312h14.406a7.064,7.064,0,0,0-2.475-4.508,7.127,7.127,0,0,0-4.533-1.519,7.443,7.443,0,0,0-4.9,1.617A7.294,7.294,0,0,0,112.455-14.308Zm37.289-10.829a9.029,9.029,0,0,1,6.811,2.695,10.217,10.217,0,0,1,2.6,7.4V0H153.86V-14.5a5.7,5.7,0,0,0-1.47-4.214,5.429,5.429,0,0,0-4.018-1.47,6.048,6.048,0,0,0-4.508,1.74q-1.715,1.739-1.715,5.316V0h-5.292V-24.5h5.292v3.136Q144.55-25.137,149.744-25.137ZM178.507-19.4h-6.076v11.76a2.932,2.932,0,0,0,.686,2.181,3.076,3.076,0,0,0,2.034.735,33.491,33.491,0,0,0,3.356-.025V0q-6.076.735-8.722-1.054t-2.646-6.59V-19.4h-4.508v-5.1h4.508v-5.292l5.292-1.568v6.86h6.076Zm55.615-14.9a15.475,15.475,0,0,1,11.736,4.949,17.083,17.083,0,0,1,4.68,12.2,17.106,17.106,0,0,1-4.68,12.177A15.438,15.438,0,0,1,234.122,0H220.647V-34.3Zm0,28.91a10.258,10.258,0,0,0,7.913-3.332A11.973,11.973,0,0,0,245.1-17.15a11.952,11.952,0,0,0-3.062-8.452,10.294,10.294,0,0,0-7.913-3.308h-7.84V-5.39ZM259.5-10A6.728,6.728,0,0,0,262.2-5.709a8.664,8.664,0,0,0,5.145,1.495,7.182,7.182,0,0,0,6.321-3.038L278.026-4.7Q274.4.637,267.3.637a13.1,13.1,0,0,1-9.653-3.65,12.474,12.474,0,0,1-3.675-9.237,12.606,12.606,0,0,1,3.626-9.188,12.47,12.47,0,0,1,9.31-3.7,11.456,11.456,0,0,1,8.845,3.773A13.081,13.081,0,0,1,279.2-12.2a16.368,16.368,0,0,1-.2,2.2Zm-.049-4.312h14.406a7.064,7.064,0,0,0-2.475-4.508,7.127,7.127,0,0,0-4.533-1.519,7.443,7.443,0,0,0-4.9,1.617A7.294,7.294,0,0,0,259.455-14.308ZM299.488-24.5h5.782L295.715,0H289.59l-9.555-24.5h5.782l6.862,18.674Zm12.3,14.5a6.728,6.728,0,0,0,2.695,4.287,8.664,8.664,0,0,0,5.145,1.495,7.182,7.182,0,0,0,6.321-3.038L330.309-4.7Q326.683.637,319.578.637a13.1,13.1,0,0,1-9.653-3.65,12.474,12.474,0,0,1-3.675-9.237,12.606,12.606,0,0,1,3.626-9.188,12.47,12.47,0,0,1,9.31-3.7,11.456,11.456,0,0,1,8.845,3.773,13.081,13.081,0,0,1,3.454,9.163,16.378,16.378,0,0,1-.2,2.2Zm-.049-4.312h14.406a7.064,7.064,0,0,0-2.475-4.508,7.127,7.127,0,0,0-4.533-1.519,7.443,7.443,0,0,0-4.9,1.617A7.294,7.294,0,0,0,311.738-14.308ZM336.14,0V-35.77h5.292V0Zm22.981.637a12.559,12.559,0,0,1-9.163-3.724,12.371,12.371,0,0,1-3.773-9.163,12.371,12.371,0,0,1,3.773-9.163,12.559,12.559,0,0,1,9.163-3.724,12.535,12.535,0,0,1,9.188,3.724,12.412,12.412,0,0,1,3.749,9.163,12.412,12.412,0,0,1-3.749,9.163A12.535,12.535,0,0,1,359.121.637Zm-5.439-7.35a7.39,7.39,0,0,0,5.439,2.2,7.39,7.39,0,0,0,5.439-2.2,7.509,7.509,0,0,0,2.205-5.537,7.509,7.509,0,0,0-2.205-5.537,7.39,7.39,0,0,0-5.439-2.2,7.39,7.39,0,0,0-5.439,2.2,7.509,7.509,0,0,0-2.205,5.537A7.509,7.509,0,0,0,353.682-6.713Zm37.044-18.424a11.49,11.49,0,0,1,8.624,3.749,12.745,12.745,0,0,1,3.577,9.139,12.722,12.722,0,0,1-3.577,9.163A11.525,11.525,0,0,1,390.726.637a9.954,9.954,0,0,1-8.575-4.116V9.8h-5.292V-24.5h5.292v3.528A9.913,9.913,0,0,1,390.726-25.137Zm-6.37,18.5a7.466,7.466,0,0,0,5.537,2.23,7.466,7.466,0,0,0,5.537-2.23,7.652,7.652,0,0,0,2.205-5.61,7.652,7.652,0,0,0-2.205-5.611,7.466,7.466,0,0,0-5.537-2.23,7.466,7.466,0,0,0-5.537,2.23,7.652,7.652,0,0,0-2.205,5.611A7.652,7.652,0,0,0,384.356-6.64ZM411.894-10a6.728,6.728,0,0,0,2.695,4.287,8.664,8.664,0,0,0,5.145,1.495,7.182,7.182,0,0,0,6.321-3.038L430.416-4.7Q426.79.637,419.685.637a13.1,13.1,0,0,1-9.653-3.65,12.474,12.474,0,0,1-3.675-9.237,12.606,12.606,0,0,1,3.626-9.188,12.47,12.47,0,0,1,9.31-3.7,11.456,11.456,0,0,1,8.845,3.773,13.081,13.081,0,0,1,3.454,9.163,16.378,16.378,0,0,1-.2,2.2Zm-.049-4.312h14.406a7.064,7.064,0,0,0-2.475-4.508,7.127,7.127,0,0,0-4.533-1.519,7.443,7.443,0,0,0-4.9,1.617A7.294,7.294,0,0,0,411.845-14.308Zm29.694-6.076q2.009-4.557,7.546-4.557v5.733a7.846,7.846,0,0,0-5.292,1.445q-2.254,1.641-2.254,5.415V0h-5.292V-24.5h5.292Z" transform="translate(734 462)"/>
    <g id="Group_180" data-name="Group 180" transform="translate(-351 -5.26)">
      <path id="Path_148" data-name="Path 148" d="M3.185,9.8V-35.28H9.506V9.8Z" transform="translate(1279 462)"/>
    </g>
  </g>
</svg>
